# xmcd CD database file
#
# Track frame offsets:
#	150
#	13015
#	28144
#	39879
#	54356
#	66767
#	78884
#	91012
#	104160
#	115056
#	128087
#	140206
#	153546
#	166286
#	178375
#	190864
#	199859
#	209870
#	222399
#	233788
#	246921
#	260368
#	272408
#	285393
#	302967
#
# Disc length: 4227 seconds
#
# Revision: 0
# Processed by: cddbd v1.5.1PL2 Copyright (c) Steve Scherf et al.
# Submitted via: CDex 1.50
#
DISCID=71108119
DTITLE=Various Artist - 100 Rhythm and Blues Classics
DYEAR=1900
DGENRE=Blues
TTITLE0=Muddy Waters - I just want to make love to you
TTITLE1=The Clovers - Your cash ain't nothin' but trash
TTITLE2=Little Junior's Blue Flames - Love my baby
TTITLE3=The Moonglows - Sincerely
TTITLE4=Little Walter - Juke
TTITLE5=Big Maybelle - Gabbin' Blues
TTITLE6=Billy Ward and The Dominoes - Rags to Riches
TTITLE7=Chuck Willis - I feel so bad
TTITLE8=Professor Longhair - Tipitina
TTITLE9=The Larks - Eyesight to the blind
TTITLE10=The Midnighters - Annie had a baby
TTITLE11=Ray Charles - Don't You know
TTITLE12=Lightnin' Hopkins - I'm wild about you baby
TTITLE13=Louis Jordan - Caldonia
TTITLE14=Dinah Washington - Teach me tonight
TTITLE15=Piano Red - The wrong yo yo
TTITLE16=The Crows - Gee
TTITLE17=The Drifters feat. Clyde McPhatter - Bip Bam
TTITLE18=Fats Domino - Going to the river
TTITLE19=Little Esther - Ring-a-ding doo
TTITLE20=The Ravens - Ol' man river
TTITLE21=Joe Turner - Honey Hush
TTITLE22=Ruth Brown - Teardrops from my eyes
TTITLE23=Howlin' Wolf - Crying at daybreak
TTITLE24=Lionel Hampton and his Orchestra - Hey! Ba-ba-rebop
EXTD=
EXTT0=
EXTT1=
EXTT2=
EXTT3=
EXTT4=
EXTT5=
EXTT6=
EXTT7=
EXTT8=
EXTT9=
EXTT10=
EXTT11=
EXTT12=
EXTT13=
EXTT14=
EXTT15=
EXTT16=
EXTT17=
EXTT18=
EXTT19=
EXTT20=
EXTT21=
EXTT22=
EXTT23=
EXTT24=
PLAYORDER=
